<?xml version="1.0" encoding="UTF-8" standalone="no"?>
<!-- Created with Inkscape (http://www.inkscape.org/) -->

<svg
   version="1.1"
   id="svg1"
   width="49.546665"
   height="33.573334"
   viewBox="0 0 49.546665 33.573334"
   sodipodi:docname="router.svg"
   inkscape:version="1.4 (e7c3feb1, 2024-10-09)"
   inkscape:export-filename="router.eps.png"
   inkscape:export-xdpi="968.76086"
   inkscape:export-ydpi="968.76086"
   xmlns:inkscape="http://www.inkscape.org/namespaces/inkscape"
   xmlns:sodipodi="http://sodipodi.sourceforge.net/DTD/sodipodi-0.dtd"
   xmlns="http://www.w3.org/2000/svg"
   xmlns:svg="http://www.w3.org/2000/svg">
  <defs
     id="defs1">
    <clipPath
       clipPathUnits="userSpaceOnUse"
       id="clipPath2">
      <path
         d="m 0,1.79688 h 370 v 250 H 0 Z"
         id="path2" />
    </clipPath>
    <clipPath
       clipPathUnits="userSpaceOnUse"
       id="clipPath4">
      <path
         d="m 0,1.79688 h 370 v 250 H 0 Z"
         id="path4" />
    </clipPath>
    <clipPath
       clipPathUnits="userSpaceOnUse"
       id="clipPath6">
      <path
         d="m 0,1.79688 h 370 v 250 H 0 Z"
         id="path6" />
    </clipPath>
    <clipPath
       clipPathUnits="userSpaceOnUse"
       id="clipPath8">
      <path
         d="m 0,1.79688 h 370 v 250 H 0 Z"
         id="path8" />
    </clipPath>
    <clipPath
       clipPathUnits="userSpaceOnUse"
       id="clipPath10">
      <path
         d="m 0,1.79688 h 370 v 250 H 0 Z"
         id="path10" />
    </clipPath>
    <clipPath
       clipPathUnits="userSpaceOnUse"
       id="clipPath12">
      <path
         d="m 0,1.79688 h 370 v 250 H 0 Z"
         id="path12" />
    </clipPath>
    <clipPath
       clipPathUnits="userSpaceOnUse"
       id="clipPath14">
      <path
         d="m 0,1.79688 h 370 v 250 H 0 Z"
         id="path14" />
    </clipPath>
  </defs>
  <sodipodi:namedview
     id="namedview1"
     pagecolor="#ffffff"
     bordercolor="#000000"
     borderopacity="0.25"
     inkscape:showpageshadow="2"
     inkscape:pageopacity="0.0"
     inkscape:pagecheckerboard="0"
     inkscape:deskcolor="#d1d1d1"
     inkscape:zoom="12.351992"
     inkscape:cx="24.773333"
     inkscape:cy="16.79891"
     inkscape:window-width="1200"
     inkscape:window-height="1186"
     inkscape:window-x="0"
     inkscape:window-y="25"
     inkscape:window-maximized="0"
     inkscape:current-layer="g1">
    <inkscape:page
       x="0"
       y="0"
       inkscape:label="1"
       id="page1"
       width="49.546665"
       height="33.573334"
       margin="0"
       bleed="0" />
  </sodipodi:namedview>
  <g
     id="g1"
     inkscape:groupmode="layer"
     inkscape:label="1"
     style="display:inline">
    <path
       id="path1"
       d="m 369.855,178.281 c 0,-39.504 -82.343,-71.523 -183.925,-71.523 C 84.3477,106.758 2,138.777 2,178.281 V 73.5156 c 0,-39.5 82.3477,-71.52341 183.93,-71.52341 101.582,0 183.925,32.02341 183.925,71.52341 V 178.281"
       style="fill:#026c9b;fill-opacity:1;fill-rule:nonzero;stroke:none"
       transform="matrix(0.13333333,0,0,-0.13333333,0,33.573333)"
       clip-path="url(#clipPath2)" />
    <path
       id="path3"
       d="m 369.855,178.281 c 0,-39.504 -82.343,-71.523 -183.925,-71.523 C 84.3477,106.758 2,138.777 2,178.281 V 73.5156 c 0,-39.5 82.3477,-71.52341 183.93,-71.52341 101.582,0 183.925,32.02341 183.925,71.52341 z"
       style="fill:none;stroke:#ffffff;stroke-width:4;stroke-linecap:butt;stroke-linejoin:miter;stroke-miterlimit:4;stroke-dasharray:none;stroke-opacity:1"
       transform="matrix(0.13333333,0,0,-0.13333333,0,33.573333)"
       clip-path="url(#clipPath4)" />
    <path
       id="path5"
       d="m 185.93,106.758 c 101.582,0 183.925,32.019 183.925,71.523 0,39.512 -82.343,71.524 -183.925,71.524 C 84.3477,249.805 2,217.793 2,178.281 2,138.777 84.3477,106.758 185.93,106.758"
       style="fill:#026c9b;fill-opacity:1;fill-rule:nonzero;stroke:#ffffff;stroke-width:4;stroke-linecap:butt;stroke-linejoin:miter;stroke-miterlimit:4;stroke-dasharray:none;stroke-opacity:1"
       transform="matrix(0.13333333,0,0,-0.13333333,0,33.573333)"
       clip-path="url(#clipPath6)" />
    <path
       id="path7"
       d="m 143.926,206.25 15.183,-22.781 -57.421,-13.274 12.55,10.45 -88.7497,15.168 22.2656,16.687 85.6371,-14.5 10.535,8.25"
       style="fill:#ffffff;fill-opacity:1;fill-rule:nonzero;stroke:none"
       transform="matrix(0.13333333,0,0,-0.13333333,0,33.573333)"
       clip-path="url(#clipPath8)" />
    <path
       id="path9"
       d="m 224.727,151.008 -10.364,23.484 51.797,10.352 -8.98,-8.047 86.328,-14.746 -20.715,-16.571 -85.813,16.114 -12.253,-10.586"
       style="fill:#ffffff;fill-opacity:1;fill-rule:nonzero;stroke:none"
       transform="matrix(0.13333333,0,0,-0.13333333,0,33.573333)"
       clip-path="url(#clipPath10)" />
    <path
       id="path11"
       d="m 196.406,218.691 58.02,15.879 0.679,-24.863 -14.5,2.766 -28.308,-23.489 -27.024,3.946 29.231,22.968 -18.098,2.793"
       style="fill:#ffffff;fill-opacity:1;fill-rule:nonzero;stroke:none"
       transform="matrix(0.13333333,0,0,-0.13333333,0,33.573333)"
       clip-path="url(#clipPath12)" />
    <path
       id="path13"
       d="m 171.543,129.59 -55.242,-10.352 -2.071,25.547 15.875,-3.445 30.415,25.965 26.914,-4.551 -32.461,-28.32 16.57,-4.844"
       style="fill:#ffffff;fill-opacity:1;fill-rule:nonzero;stroke:none"
       transform="matrix(0.13333333,0,0,-0.13333333,0,33.573333)"
       clip-path="url(#clipPath14)" />
    <path
       style="fill:#75c9e8;stroke:#333333;stroke-width:0.183591;stroke-dasharray:0.0458978, 0.0458978;fill-opacity:1"
       d="M 22.101699,32.941151 C 14.51658,32.610066 7.7525787,30.903257 3.797624,28.322356 2.6956755,27.603253 1.4238838,26.304139 1.036545,25.50196 0.87529235,25.168006 0.70361254,24.701713 0.6550343,24.465753 0.5958943,24.178492 0.5667102,22.053937 0.5667102,18.035904 v -6.000832 l 0.26024443,0.398433 c 0.42821517,0.655596 1.58612377,1.741366 2.53053497,2.372881 7.2200914,4.827977 23.0984544,6.293009 35.0561594,3.23449 4.898089,-1.252825 8.556079,-3.201081 10.214887,-5.44048 l 0.351419,-0.474418 v 6.123835 c 0,5.989946 -0.0037,6.134841 -0.168626,6.627272 -0.827611,2.470843 -4.270226,4.733574 -9.505927,6.247967 -3.618372,1.046593 -7.463421,1.622557 -12.18427,1.825129 -2.035248,0.08733 -2.845176,0.08588 -5.019433,-0.009 z"
       id="path15" />
    <path
       style="fill:#75c9e8;fill-opacity:1;stroke:#333333;stroke-width:0.183591;stroke-dasharray:0.0458978, 0.0458978"
       d="M 21.251633,18.935463 C 10.704402,18.319448 2.4041863,15.108333 0.7970514,11.022175 c -0.25449949,-0.647067 -0.25449949,-1.8053011 0,-2.4523685 2.3889864,-6.0740242 19.0334626,-9.6584781 33.5698756,-7.2294057 8.796685,1.469949 14.613028,4.8330265 14.613028,8.4494236 0,1.1673936 -0.442762,2.0687346 -1.577284,3.2109146 -0.93563,0.941946 -1.876817,1.597397 -3.358649,2.33899 -3.996005,1.99983 -9.319745,3.202642 -15.951387,3.603954 -1.537663,0.09305 -5.182042,0.08867 -6.841002,-0.0082 z M 19.30782,17.001469 c 1.914227,-0.356307 3.514172,-0.647831 3.555432,-0.647831 0.228433,0 -0.158698,-0.154293 -1.015652,-0.404793 -0.533142,-0.155845 -0.962073,-0.319787 -0.953179,-0.364314 0.0089,-0.04453 0.803316,-0.769029 1.765384,-1.610003 2.251716,-1.968299 2.376277,-2.080725 2.342607,-2.114396 -0.03683,-0.03683 -3.372648,-0.607298 -3.540884,-0.605534 -0.07092,7.43e-4 -1.003289,0.751075 -2.071942,1.667404 -1.068654,0.916328 -1.98585,1.683642 -2.038214,1.705141 -0.05236,0.0215 -0.538196,-0.05781 -1.079628,-0.176237 -0.541431,-0.118429 -1.004948,-0.194798 -1.030038,-0.169708 -0.04112,0.04113 0.07365,1.800536 0.194545,2.982172 0.04312,0.421442 0.06343,0.460823 0.219338,0.425195 0.0945,-0.0216 1.738003,-0.330789 3.652231,-0.687096 z m 25.178933,-3.921901 c 1.252762,-0.998337 1.446037,-1.178653 1.263352,-1.178653 -0.146747,0 -11.052154,-1.865987 -11.180781,-1.9131055 -0.08696,-0.031856 0.03944,-0.1916031 0.445272,-0.5627157 0.311691,-0.2850278 0.536088,-0.5185504 0.498663,-0.5189398 -0.202828,-0.00211 -6.825235,1.329103 -6.887234,1.384448 -0.08016,0.07155 1.243074,3.148526 1.354001,3.148526 0.03625,0 0.419926,-0.30655 0.852612,-0.681221 l 0.786703,-0.681222 5.705078,1.073009 c 3.137793,0.590155 5.74151,1.048063 5.786037,1.017573 0.04453,-0.03049 0.663861,-0.519954 1.376297,-1.087699 z m -27.141379,-3.02857 c 2.081644,-0.4816222 3.8087,-0.8995686 3.837902,-0.9287696 0.07564,-0.075636 -1.917493,-3.0503331 -2.043807,-3.0503331 -0.05755,0 -0.124561,0.032231 -0.148908,0.071625 -0.02435,0.039394 -0.311384,0.2762202 -0.63786,0.5262809 L 17.759108,7.1244571 12.057179,6.1600175 6.3552504,5.1955779 4.8777559,6.2999625 C 3.5281698,7.3087392 3.2751575,7.5291501 3.4667565,7.5291501 c 0.052555,0 11.1828975,1.8894807 11.5703045,1.9641683 0.05511,0.010625 -0.210902,0.2735502 -0.591136,0.5842786 -0.640591,0.523493 -0.99713,0.853742 -0.918146,0.850446 0.01803,-7.52e-4 1.73595,-0.395423 3.817595,-0.877045 z M 29.53369,7.4249817 c 0.654555,-0.5470923 1.499767,-1.2516119 1.878248,-1.565599 l 0.688148,-0.570886 0.931024,0.1845025 c 0.512063,0.1014764 0.94924,0.1866709 0.971503,0.1893211 0.04333,0.00516 0.0017,-3.3364016 -0.04212,-3.382363 -0.03043,-0.031907 -7.448869,1.9774026 -7.689424,2.0827071 -0.186867,0.081802 -0.175574,0.08451 1.310895,0.3143 l 0.9061,0.1400725 -1.897843,1.4884225 c -1.043815,0.8186324 -1.897845,1.5119048 -1.897845,1.5406055 0,0.042329 2.978035,0.5197361 3.505499,0.5619641 0.08014,0.00642 0.681262,-0.4359552 1.335817,-0.9830473 z"
       id="path16"
       inkscape:export-filename="path16.png"
       inkscape:export-xdpi="968.76086"
       inkscape:export-ydpi="968.76086" />
  </g>
</svg>
